<svg xmlns="http://www.w3.org/2000/svg" xmlns:xlink="http://www.w3.org/1999/xlink" version="1.1" id="Layer_1" x="0px" y="0px" width="100px" height="100px" viewBox="0 0 100 100" enable-background="new 0 0 100 100" xml:space="preserve">
<path fill="#000000" d="M15.813,35.228l-6.838-4.123l-0.361,2.595l4.593,2.769L9.27,38.353l0.181,4.426l5.526-2.635l-0.748,5.349  l2.238,1.35l1.114-7.941l5.245-2.499l-0.007-0.121l22.759,13.719L22.819,63.722l0.011-0.118l-5.249-2.502l-1.114-7.942l-2.238,1.354  l0.748,5.345L9.45,57.223l-0.177,4.431l3.934,1.876l-4.593,2.771l0.361,2.595l6.838-4.123l2.938,1.398L8.248,72.507l2.357,3.913  l10.507-6.333l-0.129,3.087l-6.915,4.164l2.125,1.532l4.675-2.816l-0.185,4.526l4.001,1.905l0.251-6.18l4.305,3.104l2.244-1.351  l-6.431-4.637l0.234-5.742l-0.108-0.046l22.537-13.592v26.319l-0.101-0.07l-4.848,3.2l-7.376-3.146l0.004,2.622l4.963,2.116  l-5.109,3.372l3.698,2.44l3.642-2.403v5.367l2.413,1.029l-0.007-7.983l2.721-1.796v12.269h4.566V85.11l2.581,1.701L54.86,94.89  l2.409-1.029l0.004-5.461l3.779,2.497l3.695-2.44l-5.163-3.408l4.882-2.08v-2.622l-7.29,3.114l-4.792-3.168l-0.102,0.07V54.043  L74.82,67.635l-0.107,0.046l0.237,5.742l-6.434,4.637l2.243,1.351l4.303-3.104l0.253,6.18l4.004-1.905l-0.183-4.526l4.674,2.816  l2.119-1.532l-6.916-4.164l-0.127-3.087l10.509,6.333l2.356-3.913l-10.504-6.336l2.939-1.398l6.832,4.123l0.367-2.595l-4.594-2.771  l3.935-1.876l-0.177-4.431l-5.527,2.635l0.747-5.345l-2.239-1.354l-1.113,7.942l-5.247,2.502l0.006,0.118L54.423,49.999  L77.177,36.28l-0.003,0.121l5.244,2.499l1.113,7.941l2.239-1.35l-0.747-5.349l5.527,2.635l0.177-4.426l-3.935-1.885l4.594-2.769  l-0.367-2.595l-6.832,4.123l-2.939-1.397l10.504-6.337l-2.354-3.912l-10.512,6.336l0.127-3.087l6.916-4.166l-2.119-1.534  l-4.674,2.817l0.183-4.527l-4.004-1.905l-0.253,6.178l-4.303-3.102l-2.243,1.351l6.434,4.638l-0.237,5.74l0.107,0.053L52.287,45.953  v-26.31l0.098,0.062l4.848-3.202l7.375,3.15v-2.616l-4.967-2.122l5.107-3.371l-3.695-2.439l-3.646,2.401V6.141l-2.409-1.025  l0.004,7.981l-2.714,1.795V2.621h-4.57v12.271l-2.58-1.703l0.003-8.073L42.73,6.141l-0.004,5.46l-3.778-2.495l-3.698,2.439  l5.163,3.409l-4.88,2.084v2.616l7.288-3.112l4.795,3.164l0.101-0.062v26.314L25.18,32.372l0.108-0.053l-0.234-5.74l6.431-4.638  l-2.244-1.351l-4.305,3.102l-0.251-6.178l-4.001,1.905l0.185,4.527l-4.675-2.817l-2.125,1.534l6.915,4.166l0.129,3.087  l-10.507-6.336l-2.357,3.912l10.504,6.337L15.813,35.228z M64.702,63.539l-10.59-6.229l0.207,12.252L64.702,63.539z M46.014,57.311  l-10.589,6.229l10.382,6.023L46.014,57.311z M35.425,36.344l10.589,6.225L45.807,30.32L35.425,36.344z M54.112,42.568l10.59-6.225  L54.319,30.32L54.112,42.568z M66.777,45.059l-8.306,4.985l8.306,4.982V45.059z M32.931,55.026l8.305-4.982l-8.305-4.985V55.026z"/>
</svg>